# xmcd CD database file
#
# Track frame offsets:
#	150
#	62437
#	104322
#	177090
#	227367
#	281015
#
# Disc length: 4370 seconds
#
# Revision: 0
# Processed by: cddbd v1.5.2PL0 Copyright (c) Steve Scherf et al.
# Submitted via: CDex 1.70beta2
#
DISCID=43111006
DTITLE=今村祐司 - Mario
DYEAR=1997
DGENRE=Jazz
TTITLE0=Mario
TTITLE1=海の思い出
TTITLE2=Song Of Crop - 豊作の歌
TTITLE3=Out Of This Town
TTITLE4=Jump Monk Jump
TTITLE5=泣いて笑って
EXTD=YEAR: 1997
EXTT0=
EXTT1=
EXTT2=
EXTT3=
EXTT4=
EXTT5=
PLAYORDER=
